<?xml version="1.0" encoding="UTF-8" standalone="no"?>
<!-- Created with Inkscape (http://www.inkscape.org/) -->

<svg
   width="206.3418"
   height="206.33688"
   viewBox="0 0 206.3418 206.33688"
   version="1.1"
   id="svg1"
   xml:space="preserve"
   xmlns:inkscape="http://www.inkscape.org/namespaces/inkscape"
   xmlns:sodipodi="http://sodipodi.sourceforge.net/DTD/sodipodi-0.dtd"
   xmlns="http://www.w3.org/2000/svg"
   xmlns:svg="http://www.w3.org/2000/svg"><sodipodi:namedview
     id="namedview1"
     pagecolor="#ffffff"
     bordercolor="#000000"
     borderopacity="0.25"
     inkscape:showpageshadow="2"
     inkscape:pageopacity="0.0"
     inkscape:pagecheckerboard="0"
     inkscape:deskcolor="#d1d1d1"
     inkscape:document-units="px" /><defs
     id="defs1" /><g
     inkscape:label="Layer 1"
     inkscape:groupmode="layer"
     id="layer1"
     transform="translate(11.209296,2.8568861)"><path
       id="path1"
       style="fill:#000000;stroke-width:0.601346"
       d="m 91.962581,-2.8562061 c -69.706917,1e-4 -78.030817,0.015 -79.126957,0.14062 -12.58551972,1.44215 -22.4640997,11.32074 -23.90625,23.9062501 -0.12558,1.09615 -0.13867,9.41812 -0.13867,79.124996 0,69.70687 0.0131,78.0308 0.13867,79.12695 0.58651,5.11845 2.5376503,9.81785 5.7675803,13.89453 0.95642,1.20715 3.03699,3.28578 4.24414,4.24219 4.03245,3.19489 8.71862,5.15193 13.8046897,5.76367 0.88027,0.10594 13.25032,0.12677 79.080078,0.13477 68.750178,0.009 78.178048,-0.005 79.216798,-0.125 6.2433,-0.71921 11.72812,-3.36678 16.15821,-7.79688 4.42782,-4.42781 7.07804,-9.91811 7.79687,-16.1582 0.11962,-1.03809 0.13486,-10.49282 0.13477,-79.08007 -1e-4,-69.706916 -0.015,-78.030816 -0.14063,-79.126956 -0.4295,-3.74827 -1.64972,-7.44059 -3.5,-10.58593 -3.9771,-6.7608501 -10.51702,-11.44339011 -18.0957,-12.9550801 -2.73562,-0.54566 3.66385,-0.50598 -81.433599,-0.50586 z M 50.13055,43.930904 c 7.657103,0.0144 16.689946,2.67606 26.132812,7.70117 15.568389,8.28486 31.138828,20.85265 61.384768,49.544916 6.02733,5.71772 8.39862,7.88946 9.46289,8.67188 l 0.38672,0.28515 0.40039,-0.84765 c 0.58567,-1.23976 1.25639,-2.95738 1.92188,-4.92383 1.10348,-3.26073 1.72009,-5.867006 2.48437,-10.488276 0.58744,-3.55198 0.66288,-3.72811 1.97656,-4.66797 0.76465,-0.54706 1.59163,-0.73246 3.24024,-0.72266 1.223,0.007 1.43977,0.0342 2.13281,0.25781 1.27425,0.41108 2.02542,0.93525 2.40039,1.67579 l 0.21094,0.41601 -0.21484,2.8125 c -0.11745,1.54713 -0.23884,2.97811 -0.26954,3.17774 -0.0925,0.60221 -1.56536,6.670476 -1.95507,8.054676 -0.82143,2.91768 -2.31127,7.05086 -3.45899,9.59375 -0.66917,1.48261 -1.24305,2.88198 -1.24805,3.04687 -0.004,0.1395 1.79327,1.87253 4.89844,4.72657 1.47225,1.35317 2.94123,2.73399 3.26563,3.06835 0.65238,0.67244 2.29237,2.04297 2.44531,2.04297 0.0536,0 0.33282,0.23452 0.61914,0.52149 0.28633,0.28697 0.80495,0.76167 1.1543,1.05469 0.34935,0.29301 0.94554,0.82391 1.32422,1.17968 0.37867,0.35577 0.91487,0.82239 1.1914,1.03711 0.87305,0.67792 2.28194,2.35332 2.72461,3.24024 0.33739,0.67598 0.47375,1.35106 0.46875,2.3125 -0.01,1.78153 -0.79674,3.56077 -1.95117,4.4082 -0.99828,0.7328 -2.66204,1.001 -3.71094,0.59766 -0.68339,-0.26278 -1.93578,-1.09061 -3.13086,-2.07032 -1.22163,-1.00147 -4.13873,-3.58685 -5.30859,-4.70507 -0.47412,-0.45319 -2.12866,-1.95058 -3.67578,-3.32618 -1.54713,-1.3756 -3.36337,-2.99943 -4.03711,-3.60937 -0.67375,-0.60995 -1.29556,-1.14696 -1.38086,-1.19336 -0.12749,-0.0694 -0.26271,0.0566 -0.76953,0.71484 -0.76221,0.98992 -1.2351,1.62873 -2.36133,3.19532 -4.3319,6.02565 -10.93678,12.18441 -17.62891,16.4375 -8.23813,5.23563 -17.10543,8.27225 -27.40429,9.38281 -1.23769,0.13351 -6.162277,0.24537 -7.349616,0.16797 -5.726183,-0.37347 -9.59414,-1.00597 -14.320313,-2.34375 -3.836062,-1.08582 -7.253826,-2.41048 -11.132813,-4.31641 -5.579526,-2.74149 -10.808277,-6.25418 -15.742187,-10.57422 -1.51236,-1.3242 -5.529858,-5.3338 -6.816406,-6.80273 -5.785071,-6.60515 -10.404941,-13.76229 -13.736331,-21.27929 -0.38706,-0.87338 -1.42985,-3.38417 -2.3164,-5.58008 -2.00328,-4.96198 -2.34717,-5.75601 -3.40821,-7.849606 -0.9465,-1.86759 -1.46286,-2.70809 -2.28515,-3.72656 -1.89463,-2.34666 -4.54444,-3.35479 -8.39453,-3.19336 -1.06956,0.0448 -1.29326,0.027 -1.84375,-0.14063 -0.77504,-0.23603 -1.35349,-0.59791 -2.09766,-1.3125 -0.74079,-0.71134 -1.13869,-1.31716 -1.44727,-2.20703 -0.23481,-0.67675 -0.24648,-0.80189 -0.23828,-2.25977 0.0279,-4.94771 1.82437,-12.14117 4.43164,-17.73828 4.30094,-9.23293 10.57815,-15.68574 19.50391,-20.04883 2.59948,-1.27068 3.81714,-1.69272 6.82617,-2.36132 3.309249,-0.73531 5.876345,-1.04251 8.646486,-1.03711 z m 1.451172,10.97851 c -1.946279,0.004 -2.957617,0.0976 -6.396485,0.58985 -3.298883,0.47224 -4.314473,0.76514 -6.625003,1.91992 -7.88672,3.94169 -13.29654,10.0087 -16.4375,18.43164 -0.86777,2.3271 -1.22449,3.99816 -0.91992,4.30273 0.0599,0.0599 0.27776,0.10938 0.48438,0.10938 1.28797,0 4.95554,1.49403 6.71093,2.73437 0.99298,0.70163 2.43987,2.13222 3.17188,3.13477 1.8646,2.55372 3.89724,6.66032 6.28125,12.6875 2.009,5.079086 2.47824,6.226126 3.18945,7.802726 1.73557,3.84738 3.958529,7.86575 5.896486,10.66211 5.537342,7.99007 11.508907,13.992 18.666016,18.75781 7.204585,4.79744 15.22974,7.95111 23.136719,9.0918 1.501794,0.21666 3.672363,0.44395 5.232422,0.54883 1.998399,0.13435 5.008884,-0.0492 8.968753,-0.54883 5.24128,-0.66124 7.81474,-1.27028 11.72852,-2.77344 3.84631,-1.47727 6.56076,-2.87582 11.31836,-5.83203 1.79397,-1.11471 3.02655,-2.11579 6.43945,-5.23633 2.64626,-2.41958 5.62708,-5.62909 6.69336,-7.20312 0.3888,-0.57393 1.08621,-1.54315 1.54883,-2.1543 0.97549,-1.28872 1.47037,-2.07609 1.4707,-2.3418 1.5e-4,-0.12453 -0.64916,-0.82905 -1.92773,-2.08984 -5.01372,-4.94395 -25.7456,-24.395656 -31.28516,-29.353506 -0.42295,-0.37854 -1.7495,-1.50902 -2.94727,-2.51172 -1.19777,-1.0027 -3.07587,-2.58578 -4.17383,-3.51758 -12.480619,-10.59192 -24.071528,-18.53409 -32.484374,-22.25977 -4.720545,-2.09052 -8.758175,-3.51905 -11.943359,-4.2246 -2.846428,-0.63052 -3.654317,-0.73137 -5.796875,-0.72657 z m -11.437498,13.23828 c 0.98668,0 1.08153,0.0171 1.63672,0.28321 1.07676,0.51619 1.78289,1.24294 2.40039,2.47265 0.874306,1.74114 0.917396,3.71993 0.11718,5.36133 -0.39552,0.81131 -1.52629,1.9432 -2.33593,2.33789 -0.93954,0.45805 -2.14336,0.47198 -3.13086,0.0352 -1.029,-0.45518 -1.89391,-1.35957 -2.55664,-2.67383 -1.42018,-2.81635 -0.4678,-6.19838 2.09961,-7.46094 0.71234,-0.35046 0.7342,-0.35547 1.76953,-0.35547 z M 1.5641443,159.7766 c 3.41562,0 5.42993,1.3149 7.15234,3.0957 l -3.26953,2.48047 c -0.90499,-1.37209 -2.18949,-2.04297 -3.85351,-2.04297 -1.95596002,0 -2.97852,1.05174 -2.97852,2.42383 0,1.72241 2.01413998,2.21764 4.34961,3.00586 2.89014,0.93418 6.16016,2.21957 6.16016,6.30664 0,3.35723 -2.68453,6.62695 -7.35547,6.62695 -3.82433,0 -6.36436,-1.63472 -8.32032,-3.82422 l 3.61915,-2.86133 c 1.08015,1.86838 2.71590998,2.89063 4.67187,2.89063 2.10192,0 3.24023,-1.37247 3.24023,-2.86133 0,-1.7808 -2.18961,-2.36577 -4.43750002,-3.06641 -2.89013998,-0.93418 -6.04295998,-2.01438 -6.04295998,-6.07226 0,-3.41563 2.97738,-6.10156 7.06445,-6.10156 z m 18.8300797,4.17578 c 4.29142,0 8.40625,3.24078 8.40625,8.90429 0,5.60513 -4.26069,8.875 -8.37696,8.875 -2.33547,0 -4.37924,-0.84718 -5.57617,-2.36523 v 9.86719 h -3.91211 v -24.93164 h 3.91211 v 2.27734 c 1.19693,-1.60564 3.21141,-2.62695 5.54688,-2.62695 z m 18.09961,0 c 2.24789,0 4.23296,0.90567 5.48828,2.39453 v -2.04492 h 3.941404 v 17.07812 h -3.941404 v -2.21875 c -1.25532,1.60564 -3.29899,2.57031 -5.54688,2.57031 -4.11626,0 -8.4082,-3.26987 -8.4082,-8.875 0,-5.66351 4.14618,-8.90429 8.4668,-8.90429 z m 44.69531,0 c 4.904486,0 8.845703,3.91223 8.845703,8.90429 0,4.90449 -3.941217,8.875 -8.845703,8.875 -4.93368,0 -8.845704,-3.97051 -8.845704,-8.875 0,-4.99206 3.912024,-8.90429 8.845704,-8.90429 z m 47.175786,0 c 4.29142,0 6.77344,2.65708 6.77344,7.29882 v 10.12891 h -4 v -9.7207 c 0,-2.6566 -1.2845,-4.29102 -3.85352,-4.29102 -2.24789,0 -4,1.63371 -4,4.64063 v 9.37109 h -3.93945 v -17.07812 h 3.91015 v 2.10156 c 1.13855,-1.48886 2.89068,-2.45117 5.10938,-2.45117 z m 17.3418,0 c 4.90448,0 8.8457,3.91223 8.8457,8.90429 0,4.90449 -3.94122,8.875 -8.8457,8.875 -4.93368,0 -8.84571,-3.97051 -8.84571,-8.875 0,-4.99206 3.91203,-8.90429 8.84571,-8.90429 z m 33.33789,0 c 2.24789,0 4.23296,0.90567 5.48828,2.39453 v -2.04492 h 3.9414 v 17.07812 h -3.9414 v -2.21875 c -1.25532,1.60564 -3.29899,2.57031 -5.54688,2.57031 -4.11626,0 -8.40625,-3.26987 -8.40625,-8.875 0,-5.66351 4.14423,-8.90429 8.46485,-8.90429 z m -130.728523,0.34961 h 3.912109 v 2.54101 c 0.788221,-1.69321 2.24779,-2.54101 4.378906,-2.54101 1.255315,0 2.219592,0.29256 3.007813,0.73047 l -1.488281,3.73632 c -0.583868,-0.37951 -1.226693,-0.67187 -2.365235,-0.67187 -2.306276,0 -3.503906,1.22725 -3.503906,4.17578 v 9.10742 h -3.941406 z m 12.583984,0 h 3.910156 v 2.54101 c 0.788221,-1.69321 2.249744,-2.54101 4.38086,-2.54101 1.255315,0 2.217638,0.29256 3.005859,0.73047 l -1.488281,3.73632 c -0.583868,-0.37951 -1.226693,-0.67187 -2.365235,-0.67187 -2.306276,0 -3.503906,1.22725 -3.503906,4.17578 v 9.10742 h -3.939453 z m 28.929687,0 h 4.029297 l 3.765625,11.76562 4.29102,-11.76562 h 3.91211 l 4.20312,11.79492 3.91211,-11.79492 h 4 l -5.98437,17.07812 h -3.79492 l -4.32032,-11.82226 -4.4375,11.82226 h -3.882812 z m 64.253912,0 h 4.11719 l 4.4082,12.02734 4.32031,-12.02734 h 4.0586 l -6.42383,17.07812 h -3.96875 z m -136.302736,3.24023 c -2.94853,0 -5.08008,2.33652 -5.08008,5.25586 0,2.94853 2.13155,5.3125 5.08008,5.3125 2.89014,0 5.13867,-2.33478 5.13867,-5.3125 0,-2.94853 -2.24853,-5.25586 -5.13867,-5.25586 z m 19.29687,0 c -2.91934,0 -5.16797,2.30733 -5.16797,5.25586 0,2.97772 2.24863,5.3125 5.16797,5.3125 2.94853,0 5.10938,-2.36397 5.10938,-5.3125 0,-2.91934 -2.16085,-5.25586 -5.10938,-5.25586 z m 142.550786,0 c -2.91934,0 -5.16797,2.30733 -5.16797,5.25586 0,2.97772 2.24863,5.3125 5.16797,5.3125 2.94853,0 5.10938,-2.36397 5.10938,-5.3125 0,-2.91934 -2.16085,-5.25586 -5.10938,-5.25586 z m -98.439456,0.11719 c -2.831757,0 -4.962891,2.30712 -4.962891,5.19726 0,2.83176 2.131134,5.16602 4.962891,5.16602 2.802563,0 4.96289,-2.33426 4.96289,-5.16602 0,-2.89014 -2.160327,-5.19726 -4.96289,-5.19726 z m 64.517586,0 c -2.83176,0 -4.9629,2.30712 -4.9629,5.19726 1e-5,2.83176 2.13114,5.16602 4.9629,5.16602 2.80256,0 4.96289,-2.33426 4.96289,-5.16602 0,-2.89014 -2.16033,-5.19726 -4.96289,-5.19726 z" /></g></svg>
